<?xml version="1.0" standalone="no"?>
<!DOCTYPE svg PUBLIC "-//W3C//DTD SVG 20010904//EN"
 "http://www.w3.org/TR/2001/REC-SVG-20010904/DTD/svg10.dtd">
<svg version="1.0" xmlns="http://www.w3.org/2000/svg"
 width="64.000000pt" height="64.000000pt" viewBox="0 0 64.000000 64.000000"
 preserveAspectRatio="xMidYMid meet">

<g transform="translate(0.000000,64.000000) scale(0.100000,-0.100000)"
fill="#000000" stroke="none">
<path d="M240 627 c-91 -26 -173 -97 -213 -186 -30 -65 -29 -178 1 -246 30
-65 102 -138 166 -167 74 -33 192 -32 261 2 64 31 124 91 155 155 34 69 35
187 2 261 -28 63 -102 136 -164 164 -59 26 -150 33 -208 17z m4 -173 c9 -3 16
-12 16 -20 0 -10 -10 -12 -45 -7 -52 7 -75 -7 -75 -43 0 -20 10 -29 53 -48 61
-27 80 -46 80 -83 0 -40 -44 -73 -98 -73 -52 0 -75 8 -75 25 0 10 13 12 55 8
62 -6 85 5 85 43 0 20 -11 30 -57 52 -67 31 -89 64 -73 106 5 15 20 31 32 36
27 10 80 13 102 4z m256 -134 c0 -118 -2 -140 -15 -140 -12 0 -15 13 -15 60 0
60 0 60 -29 60 -25 0 -35 -9 -66 -60 -25 -40 -43 -60 -56 -60 -18 0 -16 6 16
55 19 31 35 58 35 62 0 3 -11 16 -25 29 -39 36 -30 105 18 124 12 5 48 9 80 9
l57 1 0 -140z"/>
<path d="M364 409 c-17 -19 -17 -23 -3 -47 12 -22 23 -28 62 -30 l47 -3 0 50
0 51 -43 0 c-32 0 -49 -6 -63 -21z"/>
</g>
</svg>
